<svg xmlns="http://www.w3.org/2000/svg" xmlns:svg="http://www.w3.org/2000/svg"
	viewBox="0 0 220 110" 
    preserveAspectRatio="xMidYMid meet">
 <!-- Created with SVG-edit - http://svg-edit.googlecode.com/ -->
  <title>PermeAgility Logo</title>
    <g
       style="font-size:36px;font-style:normal;font-variant:normal;font-weight:500;font-stretch:normal;text-align:start;line-height:125%;letter-spacing:0px;word-spacing:0px;writing-mode:lr-tb;text-anchor:start;fill:#ff9d00;fill-opacity:1;stroke:none;font-family:Futura;-inkscape-font-specification:Futura Medium"
       id="text2985"
       transform="translate(-189.63535,-112.89575)">
      <path
         d="m 194.24512,189.08844 0,11.02148 -4.09571,0 0,-27.14062 4.64063,0 c 2.27343,3e-5 3.99022,0.15823 5.15039,0.47461 1.17186,0.31643 2.20311,0.91409 3.09375,1.79297 1.55858,1.52346 2.33787,3.44533 2.33789,5.76562 -2e-5,2.48439 -0.83205,4.45314 -2.49609,5.90625 -1.66408,1.45314 -3.90822,2.1797 -6.73243,2.17969 l -1.89843,0 m 0,-3.79688 1.52929,0 c 3.76171,2e-5 5.64257,-1.44724 5.64258,-4.34179 -1e-5,-2.80076 -1.93946,-4.20115 -5.81836,-4.20117 l -1.35351,0 0,8.54296"
         style="fill:#ff9d00"
         id="path5231"/>
      <path
         d="m 224.46191,192.48102 -12.26953,0 c 0.10547,1.40625 0.5625,2.52539 1.3711,3.35742 0.80858,0.82032 1.84569,1.23047 3.11132,1.23047 0.98437,0 1.79882,-0.23437 2.44336,-0.70313 0.6328,-0.46874 1.35351,-1.33593 2.16211,-2.60156 l 3.33985,1.86328 c -0.51565,0.87891 -1.06057,1.63477 -1.63477,2.26758 -0.57423,0.6211 -1.18947,1.13672 -1.8457,1.54688 -0.65627,0.39843 -1.36525,0.6914 -2.12695,0.8789 -0.76174,0.1875 -1.58791,0.28125 -2.47852,0.28125 -2.5547,0 -4.60547,-0.82031 -6.15234,-2.46094 -1.54688,-1.65234 -2.32032,-3.84374 -2.32032,-6.57421 0,-2.70702 0.75,-4.89843 2.25,-6.57422 1.51172,-1.65233 3.51562,-2.4785 6.01172,-2.47852 2.51952,2e-5 4.51171,0.80275 5.97656,2.4082 1.45311,1.59377 2.17967,3.80275 2.17969,6.62696 l -0.0176,0.93164 m -4.06054,-3.23438 c -0.5508,-2.10936 -1.88087,-3.16405 -3.99024,-3.16406 -0.48048,1e-5 -0.93165,0.0762 -1.35351,0.22852 -0.42189,0.14063 -0.8086,0.35157 -1.16016,0.63281 -0.33985,0.26954 -0.63282,0.59767 -0.87891,0.98437 -0.2461,0.38673 -0.4336,0.82619 -0.5625,1.31836 l 7.94532,0"
         style="fill:#ff9d00"
         id="path5233" />
      <path
         d="m 228.76855,182.98883 3.95508,0 0,1.5293 c 0.72656,-0.7617 1.37109,-1.28319 1.9336,-1.56446 0.57421,-0.29295 1.25389,-0.43943 2.03906,-0.43945 1.04296,2e-5 2.1328,0.33986 3.26953,1.01953 l -1.81055,3.6211 c -0.75001,-0.53905 -1.48243,-0.80858 -2.19726,-0.8086 -2.15626,2e-5 -3.23438,1.62892 -3.23438,4.88672 l 0,8.87695 -3.95508,0 0,-17.12109"
         style="fill:#ff9d00"
         id="path5235" />
      <path
         d="m 242.26855,182.98883 3.95508,0 0,1.58203 c 0.76171,-0.79686 1.4121,-1.33592 1.95117,-1.61719 0.57421,-0.29295 1.29492,-0.43943 2.16211,-0.43945 1.93359,2e-5 3.46288,0.84377 4.58789,2.53125 1.24218,-1.68748 2.92381,-2.53123 5.04493,-2.53125 3.85544,2e-5 5.78317,2.33791 5.7832,7.01367 l 0,10.58203 -3.97266,0 0,-9.50976 c -2e-5,-1.64062 -0.19924,-2.80077 -0.59765,-3.48047 -0.41018,-0.69139 -1.08401,-1.0371 -2.02149,-1.03711 -1.08986,1e-5 -1.88673,0.41017 -2.39062,1.23047 -0.49221,0.82032 -0.7383,2.13868 -0.73828,3.95508 l 0,8.84179 -3.97266,0 0,-9.45703 c -1e-5,-3.04686 -0.87892,-4.5703 -2.63672,-4.57031 -1.11329,1e-5 -1.92774,0.41603 -2.44336,1.24805 -0.50391,0.83204 -0.75586,2.14454 -0.75586,3.9375 l 0,8.84179 -3.95508,0 0,-17.12109"
         style="fill:#ff9d00"
         id="path5237" />
      <path
         d="m 286.33691,192.48102 -12.26953,0 c 0.10547,1.40625 0.5625,2.52539 1.3711,3.35742 0.80858,0.82032 1.84569,1.23047 3.11132,1.23047 0.98437,0 1.79882,-0.23437 2.44336,-0.70313 0.6328,-0.46874 1.35351,-1.33593 2.16211,-2.60156 l 3.33985,1.86328 c -0.51565,0.87891 -1.06057,1.63477 -1.63477,2.26758 -0.57423,0.6211 -1.18947,1.13672 -1.8457,1.54688 -0.65627,0.39843 -1.36525,0.6914 -2.12695,0.8789 -0.76174,0.1875 -1.58791,0.28125 -2.47852,0.28125 -2.5547,0 -4.60547,-0.82031 -6.15234,-2.46094 -1.54688,-1.65234 -2.32032,-3.84374 -2.32032,-6.57421 0,-2.70702 0.75,-4.89843 2.25,-6.57422 1.51172,-1.65233 3.51562,-2.4785 6.01172,-2.47852 2.51952,2e-5 4.51171,0.80275 5.97656,2.4082 1.45311,1.59377 2.17967,3.80275 2.17969,6.62696 l -0.0176,0.93164 m -4.06054,-3.23438 c -0.5508,-2.10936 -1.88087,-3.16405 -3.99024,-3.16406 -0.48048,1e-5 -0.93165,0.0762 -1.35351,0.22852 -0.42189,0.14063 -0.8086,0.35157 -1.16016,0.63281 -0.33985,0.26954 -0.63282,0.59767 -0.87891,0.98437 -0.2461,0.38673 -0.4336,0.82619 -0.5625,1.31836 l 7.94532,0"
         style="fill:#ff9d00"
         id="path5239" />
    </g>
    <g
       style="font-size:36px;font-style:italic;font-variant:normal;font-weight:normal;font-stretch:normal;text-align:start;line-height:125%;letter-spacing:0px;word-spacing:0px;writing-mode:lr-tb;text-anchor:start;fill:#000000;fill-opacity:1;stroke:none;font-family:Zapfino;-inkscape-font-specification:Zapfino Italic"
       id="text2989"
       transform="translate(-189.63535,-112.89575)">
      <path
         d="m 267.85429,155.0241 c 0.06,0.36002 0.44998,0.63002 1.17,0.81 0.71998,0.18002 1.55998,0.30002 2.52,0.36 1.01998,0.06 2.06998,0.09 3.15,0.09 1.07997,2e-5 1.97997,2e-5 2.7,0 1.91997,2e-5 3.47997,0.03 4.68,0.09 1.19997,2e-5 2.03997,0.06 2.52,0.18 0.59996,0.18002 0.92996,0.27002 0.99,0.27 0.11996,-0.06 0.23996,-0.29998 0.36,-0.72 0.23996,-1.19998 0.53996,-2.81998 0.9,-4.86 0.35996,-2.03997 0.71996,-4.07997 1.08,-6.12 0.35996,-2.03997 0.65996,-3.80996 0.9,-5.31 0.29996,-1.55996 0.47996,-2.45996 0.54,-2.7 0.11996,-0.47996 0.11996,-0.71996 0,-0.72 -0.12004,-0.06 -0.42004,0.09 -0.9,0.45 -0.18004,0.12004 -0.69004,0.54004 -1.53,1.26 -0.84004,0.66004 -1.92003,1.53004 -3.24,2.61 -1.26003,1.08004 -2.67003,2.28003 -4.23,3.6 -1.50003,1.26003 -3.00003,2.55003 -4.5,3.87 -1.44002,1.26003 -2.79002,2.49003 -4.05,3.69 -1.26002,1.20002 -2.28002,2.25002 -3.06,3.15 m -23.22,21.96 c 0.06,-1.08 0.45001,-2.04 1.17,-2.88 0.78,-0.9 1.8,-1.94999 3.06,-3.15 11.51999,-10.73998 20.81998,-19.19997 27.9,-25.38 7.07997,-6.23996 11.60996,-10.04996 13.59,-11.43 0.47996,-0.29996 1.19996,-0.56996 2.16,-0.81 0.95996,-0.23996 1.61996,-0.53996 1.98,-0.9 0.35996,-0.35995 0.53996,-0.38995 0.54,-0.09 0.06,0.24005 0.03,0.48004 -0.09,0.72 -0.60004,0.90004 -1.08004,1.95004 -1.44,3.15 -0.36004,1.14004 -0.60004,2.10004 -0.72,2.88 -0.06,0.24004 -0.24004,1.05004 -0.54,2.43 -0.24004,1.32003 -0.54004,2.97003 -0.9,4.95 -0.36004,1.92003 -0.75004,4.02003 -1.17,6.3 -0.36004,2.22002 -0.72004,4.38002 -1.08,6.48 -0.36004,2.04002 -0.66004,3.90001 -0.9,5.58 -0.18004,1.62001 -0.30004,2.76001 -0.36,3.42 -4e-5,1.02001 0.09,1.83001 0.27,2.43 0.23996,0.54001 0.50996,0.96001 0.81,1.26 0.29996,0.24001 0.59996,0.39001 0.9,0.45 0.29996,0.06 0.53996,0.09 0.72,0.09 0.29996,10e-6 0.65996,-0.03 1.08,-0.09 0.41996,-0.11999 0.86996,-0.23999 1.35,-0.36 0.47996,-0.11999 0.71996,-0.09 0.72,0.09 0.06,0.18001 -0.15004,0.33001 -0.63,0.45 -0.24004,0.06 -0.69004,0.18 -1.35,0.36 -0.60004,0.18 -1.32004,0.39 -2.16,0.63 -0.78004,0.24 -1.59004,0.48 -2.43,0.72 -0.78004,0.18 -1.47004,0.33 -2.07,0.45 -0.90003,0 -1.50003,-0.6 -1.8,-1.8 0.06,-0.35999 0.17997,-1.10999 0.36,-2.25 0.17997,-1.19999 0.35997,-2.45999 0.54,-3.78 0.23997,-1.31999 0.44997,-2.54999 0.63,-3.69 0.17997,-1.19998 0.26997,-1.97998 0.27,-2.34 -3e-5,-0.65998 -0.33003,-1.31998 -0.99,-1.98 -0.60003,-0.71998 -1.50003,-1.22998 -2.7,-1.53 -0.42003,-0.11998 -1.23003,-0.20998 -2.43,-0.27 -1.20003,-0.06 -2.64003,-0.09 -4.32,-0.09 -1.74002,2e-5 -3.45002,2e-5 -5.13,0 -1.68002,-0.06 -2.94002,-0.14998 -3.78,-0.27 -4.56001,4.14002 -8.40001,7.92001 -11.52,11.34 -3.06,3.42001 -5.37,6.27 -6.93,8.55 -0.48,0.78 -0.84,1.47 -1.08,2.07 -0.18,0.66 -0.33,1.5 -0.45,2.52 -0.12,0.36 -0.3,0.45 -0.54,0.27 l -0.54,-4.5"
         id="path5242" />
      <path
         d="m 319.62679,150.2541 c -2e-5,0.54003 -0.15002,1.08003 -0.45,1.62 -3.00002,5.58002 -5.70002,10.53002 -8.1,14.85 -2.40001,4.26001 -4.68001,8.19 -6.84,11.79 -2.16,3.66 -4.29,7.16999 -6.39,10.53 -2.1,3.41999 -4.32,7.04998 -6.66,10.89 -1.91999,3.05997 -3.98999,5.90997 -6.21,8.55 -2.27998,2.69997 -4.76998,5.00996 -7.47,6.93 -2.75998,1.97996 -5.72997,3.50996 -8.91,4.59 -3.23997,1.13996 -6.77996,1.70996 -10.62,1.71 -2.81996,-4e-5 -5.12995,-0.39004 -6.93,-1.17 -1.85995,-0.72004 -3.29995,-1.71004 -4.32,-2.97 -1.07995,-1.26004 -1.82995,-2.70004 -2.25,-4.32 -0.41995,-1.62003 -0.62995,-3.30003 -0.63,-5.04 5e-5,-0.72003 0.06,-1.50003 0.18,-2.34 0.12005,-0.78003 0.27005,-1.41003 0.45,-1.89 0.0601,-0.24003 0.18005,-0.36003 0.36,-0.36 0.18005,-3e-5 0.27005,0.14997 0.27,0.45 -0.11995,0.41997 -0.23995,0.89997 -0.36,1.44 -0.11995,0.59997 -0.17995,1.22997 -0.18,1.89 5e-5,2.09997 0.45005,3.89997 1.35,5.4 0.90005,1.55996 2.16005,2.81996 3.78,3.78 1.56005,1.01996 3.42004,1.76996 5.58,2.25 2.16004,0.53996 4.47004,0.80996 6.93,0.81 2.58003,-4e-5 5.19003,-0.42004 7.83,-1.26 2.58003,-0.84004 5.16002,-2.25004 7.74,-4.23 2.58002,-1.92003 5.13002,-4.44003 7.65,-7.56 2.46001,-3.12003 4.89001,-6.96002 7.29,-11.52 1.56,-2.88001 3.21,-5.94001 4.95,-9.18 1.74,-3.24 3.42,-6.36 5.04,-9.36 1.61999,-2.94 3.05999,-5.57999 4.32,-7.92 1.31999,-2.39999 2.27999,-4.13999 2.88,-5.22 -1.20001,1.62001 -2.37001,3.15001 -3.51,4.59 -1.14001,1.44001 -2.22001,2.70001 -3.24,3.78 -0.96,1.08 -1.89,1.92 -2.79,2.52 -0.9,0.66 -1.71,0.99 -2.43,0.99 -0.54,0 -0.99,-0.18 -1.35,-0.54 -0.36,-0.36 -0.54,-0.93 -0.54,-1.71 0,-0.89999 0.36,-2.15999 1.08,-3.78 0.78,-1.67999 1.77,-3.41999 2.97,-5.22 1.26,-1.79998 2.67,-3.50998 4.23,-5.13 1.55999,-1.61998 3.14999,-2.81998 4.77,-3.6 1.43999,-0.71998 2.87999,-1.07998 4.32,-1.08 0.41998,2e-5 0.74998,0.03 0.99,0.09 0.47998,-0.83998 0.95998,-1.67997 1.44,-2.52 0.53998,-0.83997 1.07998,-1.73997 1.62,-2.7 0.41998,-0.77997 0.80998,-1.16997 1.17,-1.17 0.23998,3e-5 0.44998,0.27003 0.63,0.81 0.23998,0.54003 0.35998,1.05003 0.36,1.53 m -5.76,5.31 c -0.18002,-0.06 -0.42002,-0.09 -0.72,-0.09 -0.24001,2e-5 -0.45001,2e-5 -0.63,0 -0.84001,2e-5 -1.65001,0.09 -2.43,0.27 -0.72001,0.12002 -1.35001,0.42002 -1.89,0.9 -1.50001,1.26002 -2.79001,2.67002 -3.87,4.23 -1.08001,1.56002 -1.98,3.09001 -2.7,4.59 -0.72,1.50001 -1.26,2.88001 -1.62,4.14 -0.3,1.20001 -0.45,2.07001 -0.45,2.61 0,0.66 0.18,0.99 0.54,0.99 0.36,0 1.08,-0.51 2.16,-1.53 1.07999,-1.01999 2.27999,-2.36999 3.6,-4.05 1.37999,-1.67999 2.78999,-3.56999 4.23,-5.67 1.43999,-2.09998 2.69999,-4.22998 3.78,-6.39"
         id="path5244" />
      <path
         d="m 336.35273,142.4241 c -2e-5,0.72003 -0.33002,1.44003 -0.99,2.16 -0.60002,0.72003 -1.29002,1.08003 -2.07,1.08 -0.72002,3e-5 -1.08002,-0.35997 -1.08,-1.08 -2e-5,-0.77997 0.26998,-1.52997 0.81,-2.25 0.59998,-0.71996 1.31998,-1.07996 2.16,-1.08 0.77998,4e-5 1.16998,0.39004 1.17,1.17 m 4.05,20.07 c -1.44002,1.86001 -3.09002,3.63001 -4.95,5.31 -1.86002,1.68001 -3.57001,3.03001 -5.13,4.05 -1.20001,0.78001 -2.43001,1.38 -3.69,1.8 -1.26001,0.42 -2.40001,0.63 -3.42,0.63 -0.36001,0 -0.78001,-0.03 -1.26,-0.09 -0.48,-0.06 -0.93,-0.21 -1.35,-0.45 -0.36,-0.24 -0.69,-0.54 -0.99,-0.9 -0.24,-0.41999 -0.36,-0.95999 -0.36,-1.62 0,-0.77999 0.3,-1.82999 0.9,-3.15 0.6,-1.37999 1.29,-2.78999 2.07,-4.23 0.83999,-1.43998 1.64999,-2.81998 2.43,-4.14 0.83999,-1.31998 1.49999,-2.30998 1.98,-2.97 0.29999,-0.47998 0.80999,-0.86998 1.53,-1.17 0.77999,-0.35998 1.28999,-0.53998 1.53,-0.54 0.29999,2e-5 0.44999,0.09 0.45,0.27 -10e-6,0.12002 -0.06,0.30002 -0.18,0.54 -0.06,0.24002 -0.15001,0.42002 -0.27,0.54 -0.78001,1.20002 -1.59001,2.52002 -2.43,3.96 -0.78001,1.44002 -1.50001,2.85001 -2.16,4.23 -0.66001,1.32001 -1.20001,2.55001 -1.62,3.69 -0.36001,1.14001 -0.54001,2.04001 -0.54,2.7 -10e-6,0.72001 0.17999,1.26001 0.54,1.62 0.41999,0.3 0.95999,0.45 1.62,0.45 1.19999,0 2.51999,-0.38999 3.96,-1.17 1.43999,-0.83999 2.84999,-1.82999 4.23,-2.97 1.43998,-1.13999 2.75998,-2.33999 3.96,-3.6 1.19998,-1.25999 2.12998,-2.33999 2.79,-3.24 0.29998,-0.29998 0.44998,-0.35998 0.45,-0.18 0.06,0.12002 0.03,0.33002 -0.09,0.63"
         id="path5246" />
      <path
         d="m 378.49523,115.6041 c -5e-5,0.84006 -0.33004,2.07006 -0.99,3.69 -0.66004,1.62006 -1.62004,3.51005 -2.88,5.67 -1.20004,2.10005 -2.70004,4.38005 -4.5,6.84 -1.74004,2.40004 -3.75003,4.80004 -6.03,7.2 -2.22003,2.40004 -4.68003,4.71003 -7.38,6.93 -2.70002,2.16003 -5.58002,4.08003 -8.64,5.76 -0.54001,0.96003 -1.29001,2.25002 -2.25,3.87 -0.96001,1.62002 -1.92001,3.33002 -2.88,5.13 -0.90001,1.80002 -1.71001,3.57001 -2.43,5.31 -0.66001,1.74001 -0.99001,3.21001 -0.99,4.41 -1e-5,1.92001 0.86999,2.88 2.61,2.88 1.49999,0 3.05999,-0.42 4.68,-1.26 1.61998,-0.83999 3.14998,-1.85999 4.59,-3.06 1.49998,-1.19999 2.87998,-2.45999 4.14,-3.78 1.31998,-1.37999 2.42998,-2.60998 3.33,-3.69 0.41997,-0.41998 0.65997,-0.50998 0.72,-0.27 0.06,0.18002 -0.03,0.39002 -0.27,0.63 -1.08002,1.32001 -2.37002,2.73001 -3.87,4.23 -1.44002,1.50001 -3.00002,2.88001 -4.68,4.14 -1.62002,1.26001 -3.33001,2.31001 -5.13,3.15 -1.80001,0.84 -3.60001,1.26 -5.4,1.26 -1.56001,0 -2.7,-0.36 -3.42,-1.08 -0.66,-0.78 -0.99,-1.70999 -0.99,-2.79 0,-1.07999 0.45,-2.60999 1.35,-4.59 0.96,-2.03999 2.06999,-4.16998 3.33,-6.39 1.25999,-2.21998 2.51999,-4.31998 3.78,-6.3 1.25999,-1.97997 2.18999,-3.47997 2.79,-4.5 1.01999,-1.73997 2.06998,-3.53997 3.15,-5.4 1.13998,-1.91996 2.24998,-3.77996 3.33,-5.58 1.07998,-1.79996 2.09998,-3.50996 3.06,-5.13 1.01998,-1.67995 1.94997,-3.14995 2.79,-4.41 1.01997,-1.55995 2.06997,-3.02995 3.15,-4.41 1.07997,-1.37995 2.45997,-2.75994 4.14,-4.14 2.27996,-1.91994 4.37996,-3.38994 6.3,-4.41 1.91996,-1.01994 3.20996,-1.52994 3.87,-1.53 0.47996,6e-5 0.86996,0.15006 1.17,0.45 0.29996,0.24006 0.44995,0.63006 0.45,1.17 m -4.05,2.34 c -4e-5,-0.95994 -0.39004,-1.43994 -1.17,-1.44 -0.30004,6e-5 -0.63004,0.0901 -0.99,0.27 -0.36004,0.18006 -0.84004,0.57006 -1.44,1.17 -0.54004,0.54006 -1.23004,1.32006 -2.07,2.34 -0.78003,1.02006 -1.80003,2.34006 -3.06,3.96 -0.48003,0.66005 -1.17003,1.62005 -2.07,2.88 -0.84003,1.26005 -1.95003,2.94005 -3.33,5.04 -1.32003,2.04004 -2.94002,4.59004 -4.86,7.65 -1.86002,3.00003 -4.08002,6.57003 -6.66,10.71 3.59998,-2.03997 6.95998,-4.49997 10.08,-7.38 3.17997,-2.93996 5.90997,-5.93996 8.19,-9 2.27996,-3.05995 4.07996,-6.02995 5.4,-8.91 1.31996,-2.87994 1.97996,-5.30994 1.98,-7.29"
         id="path5248" />
      <path
         d="m 370.94648,142.4241 c -2e-5,0.72003 -0.33002,1.44003 -0.99,2.16 -0.60002,0.72003 -1.29002,1.08003 -2.07,1.08 -0.72002,3e-5 -1.08002,-0.35997 -1.08,-1.08 -2e-5,-0.77997 0.26998,-1.52997 0.81,-2.25 0.59998,-0.71996 1.31998,-1.07996 2.16,-1.08 0.77998,4e-5 1.16998,0.39004 1.17,1.17 m 4.05,20.07 c -1.44002,1.86001 -3.09002,3.63001 -4.95,5.31 -1.86002,1.68001 -3.57001,3.03001 -5.13,4.05 -1.20001,0.78001 -2.43001,1.38 -3.69,1.8 -1.26001,0.42 -2.40001,0.63 -3.42,0.63 -0.36001,0 -0.78001,-0.03 -1.26,-0.09 -0.48,-0.06 -0.93,-0.21 -1.35,-0.45 -0.36,-0.24 -0.69,-0.54 -0.99,-0.9 -0.24,-0.41999 -0.36,-0.95999 -0.36,-1.62 0,-0.77999 0.3,-1.82999 0.9,-3.15 0.6,-1.37999 1.29,-2.78999 2.07,-4.23 0.83999,-1.43998 1.64999,-2.81998 2.43,-4.14 0.83999,-1.31998 1.49999,-2.30998 1.98,-2.97 0.29999,-0.47998 0.80999,-0.86998 1.53,-1.17 0.77999,-0.35998 1.28999,-0.53998 1.53,-0.54 0.29999,2e-5 0.44999,0.09 0.45,0.27 -10e-6,0.12002 -0.06,0.30002 -0.18,0.54 -0.06,0.24002 -0.15001,0.42002 -0.27,0.54 -0.78001,1.20002 -1.59001,2.52002 -2.43,3.96 -0.78001,1.44002 -1.50001,2.85001 -2.16,4.23 -0.66001,1.32001 -1.20001,2.55001 -1.62,3.69 -0.36001,1.14001 -0.54001,2.04001 -0.54,2.7 -10e-6,0.72001 0.17999,1.26001 0.54,1.62 0.41999,0.3 0.95999,0.45 1.62,0.45 1.19999,0 2.51999,-0.38999 3.96,-1.17 1.43999,-0.83999 2.84999,-1.82999 4.23,-2.97 1.43998,-1.13999 2.75998,-2.33999 3.96,-3.6 1.19998,-1.25999 2.12998,-2.33999 2.79,-3.24 0.29998,-0.29998 0.44998,-0.35998 0.45,-0.18 0.06,0.12002 0.03,0.33002 -0.09,0.63"
         id="path5250" />
      <path
         d="m 391.39898,141.4341 c -0.48002,0.12004 -1.02002,0.36004 -1.62,0.72 -0.60002,0.30004 -1.05002,0.69003 -1.35,1.17 -1.38002,1.92003 -2.73002,3.93003 -4.05,6.03 -1.26002,2.10003 -2.49001,4.20002 -3.69,6.3 l 11.16,0 c 0.17998,0.12002 0.26998,0.24002 0.27,0.36 -2e-5,0.12002 -0.06,0.21002 -0.18,0.27 -0.48002,2e-5 -1.20002,0.03 -2.16,0.09 -0.96002,2e-5 -2.01002,0.03 -3.15,0.09 -1.14002,0.06 -2.31002,0.12002 -3.51,0.18 -1.20001,0.06 -2.25001,0.12002 -3.15,0.18 -1.68001,3.00002 -2.97001,5.55002 -3.87,7.65 -0.90001,2.10001 -1.35001,3.93001 -1.35,5.49 -1e-5,2.16001 0.98999,3.24 2.97,3.24 0.95999,0 2.03999,-0.24 3.24,-0.72 1.25999,-0.53999 2.57998,-1.22999 3.96,-2.07 0.17998,-0.17999 0.35998,-0.14999 0.54,0.09 0.17998,0.18001 0.11998,0.33001 -0.18,0.45 -2.04002,1.32001 -3.93001,2.28 -5.67,2.88 -1.74001,0.6 -3.51001,0.9 -5.31,0.9 -0.96001,0 -1.8,-0.27 -2.52,-0.81 -0.72,-0.6 -1.08,-1.58999 -1.08,-2.97 0,-1.19999 0.54,-2.96999 1.62,-5.31 1.07999,-2.33999 2.66999,-5.21998 4.77,-8.64 -0.72001,0.06 -1.62001,0.15002 -2.7,0.27 -1.02001,0.06 -1.62,0.09 -1.8,0.09 -0.3,2e-5 -0.45,-0.11998 -0.45,-0.36 0.24,-0.41998 0.63,-0.83998 1.17,-1.26 l 4.59,-0.09 c 0.53999,-0.89998 1.13999,-1.88998 1.8,-2.97 0.65999,-1.13997 1.31999,-2.24997 1.98,-3.33 0.65999,-1.13997 1.31998,-2.21997 1.98,-3.24 0.71998,-1.07997 1.34998,-2.06997 1.89,-2.97 0.65998,-0.29997 1.55998,-0.68996 2.7,-1.17 1.19998,-0.47996 2.24998,-0.86996 3.15,-1.17 0.11998,4e-5 0.20998,0.09 0.27,0.27 0.06,0.12004 -0.03,0.24004 -0.27,0.36"
         id="path5252" />
      <path
         d="m 389.56804,173.2941 c -0.84,0 -1.5,-0.18 -1.98,-0.54 -0.48,-0.35999 -0.72,-0.89999 -0.72,-1.62 0,-1.19999 0.72,-2.96999 2.16,-5.31 1.5,-2.39999 3.3,-5.21998 5.4,-8.46 0.23999,-0.29998 0.41999,-0.50998 0.54,-0.63 0.17999,-0.17998 0.35999,-0.32998 0.54,-0.45 0.29999,-0.06 0.68999,-0.11998 1.17,-0.18 0.53999,-0.11998 0.86999,-0.17998 0.99,-0.18 0.23999,2e-5 0.35999,0.09 0.36,0.27 -2.16001,3.78002 -3.99001,6.87001 -5.49,9.27 -1.44,2.34001 -2.16,4.17001 -2.16,5.49 0,0.72001 0.33,1.08001 0.99,1.08 0.3,1e-5 0.69,-0.09 1.17,-0.27 0.48,-0.17999 0.98999,-0.41999 1.53,-0.72 0.53999,-0.29999 1.04999,-0.59999 1.53,-0.9 0.47999,-0.35999 0.83999,-0.68999 1.08,-0.99 0.53999,-0.53999 1.31999,-1.79999 2.34,-3.78 1.07999,-2.03999 2.36999,-4.40998 3.87,-7.11 0.71998,-1.31998 1.37998,-2.42998 1.98,-3.33 0.65998,-0.89998 1.19998,-1.34998 1.62,-1.35 0.23998,0.12002 0.44998,0.42002 0.63,0.9 0.23998,0.48002 0.35998,0.96002 0.36,1.44 -2e-5,0.24002 -0.27002,0.81002 -0.81,1.71 -0.54002,0.84002 -1.23002,1.86002 -2.07,3.06 -0.84002,1.14002 -1.77001,2.37001 -2.79,3.69 -0.96001,1.32001 -1.89001,2.55001 -2.79,3.69 -2.16001,3.30001 -4.35001,6.69 -6.57,10.17 -2.16,3.54 -4.35,6.92999 -6.57,10.17 -2.22,3.29999 -4.49999,6.38998 -6.84,9.27 -2.33999,2.93998 -4.73999,5.48997 -7.2,7.65 -2.51998,2.15997 -5.09998,3.86997 -7.74,5.13 -2.69997,1.25997 -5.51997,1.88997 -8.46,1.89 -1.73997,-3e-5 -3.29996,-0.42003 -4.68,-1.26 -1.37996,-0.84003 -2.06996,-2.31003 -2.07,-4.41 4e-5,-0.48003 0.06,-0.99003 0.18,-1.53 0.06,-0.48003 0.15004,-0.87003 0.27,-1.17 0.06,-0.18003 0.15004,-0.30003 0.27,-0.36 0.12004,-0.06 0.18004,0.03 0.18,0.27 4e-5,1.61997 0.60004,3.08997 1.8,4.41 1.20004,1.31997 3.33003,1.97997 6.39,1.98 2.46003,-3e-5 4.92003,-0.63003 7.38,-1.89 2.40002,-1.20003 4.77002,-2.82003 7.11,-4.86 2.28001,-2.04002 4.50001,-4.41002 6.66,-7.11 2.16001,-2.70002 4.23,-5.52001 6.21,-8.46 2.04,-2.94001 3.96,-5.91 5.76,-8.91 1.8,-2.94 3.44999,-5.73 4.95,-8.37 0.11999,-0.23999 0.11999,-0.32999 0,-0.27 -0.12001,0.06 -0.21001,0.12001 -0.27,0.18 -0.66001,0.54001 -1.56001,1.14001 -2.7,1.8 -1.14,0.6 -2.31,0.9 -3.51,0.9"
         id="path5254" />
    </g>
</svg>
